<svg xmlns="http://www.w3.org/2000/svg" xmlns:xlink="http://www.w3.org/1999/xlink" width="76.053" height="73.811" viewBox="0 0 76.053 73.811"><defs><style>.a,.e{fill-rule:evenodd;}.a{fill:url(#a);}.b{fill:url(#b);}.c{fill:url(#c);}.d{fill:url(#d);}.e{fill:url(#e);}.f{fill:url(#f);}.g{fill:url(#g);}.h{fill:url(#h);}.i{fill:url(#i);}.j{fill:url(#j);}.k{fill:url(#k);}.l{fill:url(#l);}.m{fill:url(#m);}.n{fill:#c3d2fb;}</style><linearGradient id="a" x1="-9.782" y1="11.032" x2="-9.49" y2="11.032" gradientUnits="objectBoundingBox"><stop offset="0" stop-color="#2e719d"/><stop offset="1" stop-color="#2e3c84"/></linearGradient><linearGradient id="b" x1="-6.536" y1="10.516" x2="-6.376" y2="10.516" gradientUnits="objectBoundingBox"><stop offset="0" stop-color="#fdd46f"/><stop offset="1" stop-color="#fdae4f"/></linearGradient><linearGradient id="c" x1="-15.647" y1="24.486" x2="-15.202" y2="24.486" xlink:href="#a"/><linearGradient id="d" x1="-11.917" y1="17.68" x2="-11.664" y2="17.68" xlink:href="#b"/><linearGradient id="e" x1="-2.084" y1="1.382" x2="-2.036" y2="1.382" gradientUnits="objectBoundingBox"><stop offset="0" stop-color="#0a81ad"/><stop offset="1" stop-color="#95c123"/></linearGradient><linearGradient id="f" x1="-2.426" y1="1.504" x2="-2.37" y2="1.504" gradientUnits="objectBoundingBox"><stop offset="0" stop-color="#f80000"/><stop offset="0" stop-color="#fff"/><stop offset="1" stop-color="#0a81ad"/></linearGradient><linearGradient id="g" x1="-6.074" y1="3.146" x2="-5.915" y2="3.146" gradientUnits="objectBoundingBox"><stop offset="0" stop-color="#eefbf4"/><stop offset="1" stop-color="#d0d9f2"/></linearGradient><linearGradient id="h" x1="-10.86" y1="3.638" x2="-10.689" y2="3.638" xlink:href="#a"/><linearGradient id="i" x1="-11.453" y1="5.764" x2="-11.159" y2="5.764" xlink:href="#b"/><linearGradient id="j" x1="-16.965" y1="21.628" x2="-16.388" y2="21.628" gradientUnits="objectBoundingBox"><stop offset="0" stop-color="#8ee78a"/><stop offset="1" stop-color="#42d4cf"/></linearGradient><linearGradient id="k" x1="-13.085" y1="17.224" x2="-12.507" y2="17.224" xlink:href="#j"/><linearGradient id="l" x1="-53.04" y1="-1.146" x2="-51.964" y2="-1.146" xlink:href="#j"/><linearGradient id="m" x1="-66.64" y1="-9.971" x2="-65.564" y2="-9.971" xlink:href="#j"/></defs><g transform="translate(10.291)"><path class="a" d="M3106.849,509.023l-7.589,2.033,1.654,6.173,7.589-2.033Z" transform="translate(-3084.152 -504.811)"/><path class="b" d="M3073.259,475.195a1.922,1.922,0,0,1-1.355,2.347l-12.772,3.422a1.922,1.922,0,0,1-2.347-1.355l-.365-1.361a1.921,1.921,0,0,1,1.354-2.347l12.772-3.423a1.922,1.922,0,0,1,2.347,1.356Z" transform="translate(-3046.183 -472.413)"/><path class="c" d="M3272.1,538.314l-4.7-1.687,1.372-3.827,4.705,1.687Z" transform="translate(-3232.944 -525.853)"/><path class="d" d="M3265.515,513.887a1.223,1.223,0,0,1-1.559.736l-7.918-2.839a1.223,1.223,0,0,1-.736-1.559l.3-.844a1.222,1.222,0,0,1,1.558-.736l7.918,2.839a1.224,1.224,0,0,1,.737,1.56Z" transform="translate(-3222.176 -504.414)"/><path class="e" d="M2988.535,551.91a27.762,27.762,0,1,1-19.631,34A27.776,27.776,0,0,1,2988.535,551.91Z" transform="translate(-2967.953 -541.921)"/><path class="f" d="M3028.165,628.406a24.365,24.365,0,1,1,17.23-29.841A24.393,24.393,0,0,1,3028.165,628.406Z" transform="translate(-2994.091 -568.066)"/><path class="g" d="M3072.311,587.885a24.213,24.213,0,0,0-10.618,6.054l16.978,17.681Z" transform="translate(-3050.907 -574.599)"/><g transform="translate(17.044 26.132)"><path class="h" d="M3131.217,715.909a.851.851,0,0,0,.371-.209.86.86,0,0,0,.027-1.216L3117.562,699.8a.86.86,0,0,0-1.243,1.189l14.053,14.685A.86.86,0,0,0,3131.217,715.909Z" transform="translate(-3116.08 -699.533)"/></g><path class="i" d="M3175.156,761.411a4.591,4.591,0,1,1,3.246-5.623A4.6,4.6,0,0,1,3175.156,761.411Z" transform="translate(-3146.2 -720.172)"/><g transform="translate(46.164 29.99)"><path class="j" d="M3373.216,734.749l-2.967.795a.86.86,0,0,1-.446-1.662l2.967-.795a.86.86,0,0,1,.445,1.662Z" transform="translate(-3369.167 -733.057)"/></g><g transform="translate(4.817 41.069)"><path class="k" d="M3013.864,831.039l-2.967.795a.86.86,0,0,1-.445-1.661l2.967-.795a.86.86,0,1,1,.446,1.661Z" transform="translate(-3009.814 -829.348)"/></g><g transform="translate(21.036 13.77)"><path class="l" d="M3152.66,596.747a.86.86,0,0,1-1.054-.608l-.795-2.967a.86.86,0,0,1,1.662-.446l.795,2.967A.86.86,0,0,1,3152.66,596.747Z" transform="translate(-3150.781 -592.089)"/></g><g transform="translate(32.116 55.117)"><path class="m" d="M3248.95,956.1a.86.86,0,0,1-1.053-.608l-.8-2.967a.86.86,0,0,1,1.662-.445l.795,2.967A.86.86,0,0,1,3248.95,956.1Z" transform="translate(-3247.072 -951.446)"/></g><ellipse class="n" cx="38.027" cy="2.753" rx="38.027" ry="2.753" transform="translate(-10.291 68.305)"/></g></svg>